<svg width="852" height="1766" viewBox="0 0 852 1766" class="keymap" xmlns="http://www.w3.org/2000/svg" xmlns:xlink="http://www.w3.org/1999/xlink">
<style>/* inherit to force styles through use tags */
svg path {
    fill: inherit;
}

/* font and background color specifications */
svg.keymap {
    font-family: SFMono-Regular,Consolas,Liberation Mono,Menlo,monospace;
    font-size: 14px;
    font-kerning: normal;
    text-rendering: optimizeLegibility;
    fill: #24292e;
}

/* default key styling */
rect.key {
    fill: #f6f8fa;
}

rect.key, rect.combo {
    stroke: #c9cccf;
    stroke-width: 1;
}

/* default key side styling, only used is draw_key_sides is set */
rect.side {
    filter: brightness(90%);
}

/* color accent for combo boxes */
rect.combo, rect.combo-separate {
    fill: #cdf;
}

/* color accent for held keys */
rect.held, rect.combo.held {
    fill: #fdd;
}

/* color accent for ghost (optional) keys */
rect.ghost, rect.combo.ghost {
    stroke-dasharray: 4, 4;
    stroke-width: 2;
}

text {
    text-anchor: middle;
    dominant-baseline: middle;
}

/* styling for layer labels */
text.label {
    font-weight: bold;
    text-anchor: start;
    stroke: white;
    stroke-width: 4;
    paint-order: stroke;
}

/* styling for optional footer */
text.footer {
    text-anchor: end;
    dominant-baseline: auto;
    stroke: white;
    stroke-width: 4;
    paint-order: stroke;
}

/* styling for combo tap, and key hold/shifted label text */
text.combo, text.hold, text.shifted {
    font-size: 11px;
}

text.hold {
    text-anchor: middle;
    dominant-baseline: auto;
}

text.shifted {
    text-anchor: middle;
    dominant-baseline: hanging;
}

/* styling for hold/shifted label text in combo box */
text.combo.hold, text.combo.shifted {
    font-size: 8px;
}

/* lighter symbol for transparent keys */
text.trans {
    fill: #7b7e81;
}

/* styling for combo dendrons */
path.combo {
    stroke-width: 1;
    stroke: gray;
    fill: none;
}

/* Start Tabler Icons Cleanup */
/* cannot use height/width with glyphs */
.icon-tabler > path {
    fill: inherit;
    stroke: inherit;
    stroke-width: 2;
}
/* hide tabler's default box */
.icon-tabler > path[stroke="none"][fill="none"] {
    visibility: hidden;
}
/* End Tabler Icons Cleanup */
</style>
<g transform="translate(30, 0)" class="layer-aptmak">
<text x="0" y="28" class="label">aptmak:</text>
<g transform="translate(0, 120)">
<g transform="translate(99, 33)" class="key keypos-0">
<rect rx="6" ry="6" x="-31" y="-31" width="62" height="62" class="key"/>
<text x="0" y="0" class="key tap">W</text>
</g>
<g transform="translate(165, 33)" class="key keypos-1">
<rect rx="6" ry="6" x="-31" y="-31" width="62" height="62" class="key"/>
<text x="0" y="0" class="key tap">F</text>
</g>
<g transform="translate(231, 33)" class="key keypos-2">
<rect rx="6" ry="6" x="-31" y="-31" width="62" height="62" class="key"/>
<text x="0" y="0" class="key tap">P</text>
</g>
<g transform="translate(297, 66)" class="key keypos-3">
<rect rx="6" ry="6" x="-31" y="-31" width="62" height="62" class="key"/>
<text x="0" y="0" class="key tap">B</text>
</g>
<g transform="translate(495, 66)" class="key keypos-4">
<rect rx="6" ry="6" x="-31" y="-31" width="62" height="62" class="key"/>
<text x="0" y="0" class="key tap">J</text>
</g>
<g transform="translate(561, 33)" class="key keypos-5">
<rect rx="6" ry="6" x="-31" y="-31" width="62" height="62" class="key"/>
<text x="0" y="0" class="key tap">L</text>
</g>
<g transform="translate(627, 33)" class="key keypos-6">
<rect rx="6" ry="6" x="-31" y="-31" width="62" height="62" class="key"/>
<text x="0" y="0" class="key tap">U</text>
</g>
<g transform="translate(693, 33)" class="key keypos-7">
<rect rx="6" ry="6" x="-31" y="-31" width="62" height="62" class="key"/>
<text x="0" y="0" class="key tap">Y</text>
</g>
<g transform="translate(33, 165)" class="key keypos-8">
<rect rx="6" ry="6" x="-31" y="-31" width="62" height="62" class="key"/>
<text x="0" y="0" class="key tap">R</text>
</g>
<g transform="translate(99, 99)" class="key keypos-9">
<rect rx="6" ry="6" x="-31" y="-31" width="62" height="62" class="key"/>
<text x="0" y="0" class="key tap">S</text>
<text x="0" y="16" class="key hold">LALT</text>
</g>
<g transform="translate(165, 99)" class="key keypos-10">
<rect rx="6" ry="6" x="-31" y="-31" width="62" height="62" class="key"/>
<text x="0" y="0" class="key tap">T</text>
<text x="0" y="16" class="key hold">LSHFT</text>
</g>
<g transform="translate(231, 99)" class="key keypos-11">
<rect rx="6" ry="6" x="-31" y="-31" width="62" height="62" class="key"/>
<text x="0" y="0" class="key tap">H</text>
<text x="0" y="16" class="key hold">LCTRL</text>
</g>
<g transform="translate(297, 132)" class="key keypos-12">
<rect rx="6" ry="6" x="-31" y="-31" width="62" height="62" class="key"/>
<text x="0" y="0" class="key tap">K</text>
<text x="0" y="16" class="key hold">LGUI</text>
</g>
<g transform="translate(495, 132)" class="key keypos-13">
<rect rx="6" ry="6" x="-31" y="-31" width="62" height="62" class="key"/>
<text x="0" y="0" class="key tap">X</text>
<text x="0" y="16" class="key hold">LGUI</text>
</g>
<g transform="translate(561, 99)" class="key keypos-14">
<rect rx="6" ry="6" x="-31" y="-31" width="62" height="62" class="key"/>
<text x="0" y="0" class="key tap">N</text>
<text x="0" y="16" class="key hold">RCTRL</text>
</g>
<g transform="translate(627, 99)" class="key keypos-15">
<rect rx="6" ry="6" x="-31" y="-31" width="62" height="62" class="key"/>
<text x="0" y="0" class="key tap">A</text>
<text x="0" y="16" class="key hold">RSHFT</text>
</g>
<g transform="translate(693, 99)" class="key keypos-16">
<rect rx="6" ry="6" x="-31" y="-31" width="62" height="62" class="key"/>
<text x="0" y="0" class="key tap">I</text>
<text x="0" y="16" class="key hold">LALT</text>
</g>
<g transform="translate(759, 165)" class="key keypos-17">
<rect rx="6" ry="6" x="-31" y="-31" width="62" height="62" class="key"/>
<text x="0" y="0" class="key tap">O</text>
</g>
<g transform="translate(99, 165)" class="key keypos-18">
<rect rx="6" ry="6" x="-31" y="-31" width="62" height="62" class="key"/>
<text x="0" y="0" class="key tap">C</text>
</g>
<g transform="translate(165, 165)" class="key keypos-19">
<rect rx="6" ry="6" x="-31" y="-31" width="62" height="62" class="key"/>
<text x="0" y="0" class="key tap">G</text>
</g>
<g transform="translate(231, 165)" class="key keypos-20">
<rect rx="6" ry="6" x="-31" y="-31" width="62" height="62" class="key"/>
<text x="0" y="0" class="key tap">D</text>
</g>
<g transform="translate(561, 165)" class="key keypos-21">
<rect rx="6" ry="6" x="-31" y="-31" width="62" height="62" class="key"/>
<text x="0" y="0" class="key tap">M</text>
</g>
<g transform="translate(627, 165)" class="key keypos-22">
<rect rx="6" ry="6" x="-31" y="-31" width="62" height="62" class="key"/>
<text x="0" y="0" class="key tap">,</text>
<text x="0" y="-16" class="key shifted">;</text>
</g>
<g transform="translate(693, 165)" class="key keypos-23">
<rect rx="6" ry="6" x="-31" y="-31" width="62" height="62" class="key"/>
<text x="0" y="0" class="key tap">.</text>
<text x="0" y="-16" class="key shifted">:</text>
</g>
<g transform="translate(264, 231)" class="key keypos-24">
<rect rx="6" ry="6" x="-31" y="-31" width="62" height="62" class="key"/>
<text x="0" y="0" class="key tap">ENTER</text>
<text x="0" y="16" class="key hold">numbers</text>
</g>
<g transform="translate(330, 231)" class="key keypos-25">
<rect rx="6" ry="6" x="-31" y="-31" width="62" height="62" class="key"/>
<text x="0" y="0" class="key tap">SPACE</text>
<text x="0" y="16" class="key hold"><tspan style="font-size: 70%">navigation</tspan></text>
</g>
<g transform="translate(462, 231)" class="key keypos-26">
<rect rx="6" ry="6" x="-31" y="-31" width="62" height="62" class="key"/>
<text x="0" y="0" class="key tap">E</text>
<text x="0" y="16" class="key hold">symbols</text>
</g>
<g transform="translate(528, 231)" class="key keypos-27">
<rect rx="6" ry="6" x="-31" y="-31" width="62" height="62" class="key"/>
<text x="0" y="0" class="key tap">TAB</text>
<text x="0" y="16" class="key hold"><tspan style="font-size: 88%">function</tspan></text>
</g>
<g class="combo combopos-0">
<rect rx="6" ry="6" x="184" y="20" width="28" height="26" class="combo"/>
<text x="198" y="33" class="combo tap">Q</text>
</g>
<g class="combo combopos-1">
<rect rx="6" ry="6" x="118" y="152" width="28" height="26" class="combo"/>
<text x="132" y="165" class="combo tap">Z</text>
</g>
<g class="combo combopos-2">
<rect rx="6" ry="6" x="118" y="20" width="28" height="26" class="combo"/>
<text x="132" y="33" class="combo tap">V</text>
</g>
<g class="combo combopos-3">
<path d="M544,298 h76 a6.0,6.0 0 0 0 6.0,-6.0 v-171" class="combo"/>
<path d="M544,298 h-76 a6.0,6.0 0 0 1 -6.0,-6.0 v-39" class="combo"/>
<rect rx="6" ry="6" x="530" y="285" width="28" height="26" class="combo"/>
<text x="544" y="298" class="combo tap">
<tspan x="544" dy="-0.6em">AGr+</tspan><tspan x="544" dy="1.2em">A</tspan>
</text>
</g>
<g class="combo combopos-4">
<path d="M610,282 h142 a6.0,6.0 0 0 0 6.0,-6.0 v-88" class="combo"/>
<path d="M610,282 h-142 a6.0,6.0 0 0 1 -6.0,-6.0 v-22" class="combo"/>
<rect rx="6" ry="6" x="596" y="268" width="28" height="26" class="combo"/>
<text x="610" y="282" class="combo tap">
<tspan x="610" dy="-0.6em">AGr+</tspan><tspan x="610" dy="1.2em">O</tspan>
</text>
</g>
<g class="combo combopos-5">
<path d="M544,-18 h76 a6.0,6.0 0 0 1 6.0,6.0 v22" class="combo"/>
<path d="M544,-18 h-76 a6.0,6.0 0 0 0 -6.0,6.0 v220" class="combo"/>
<rect rx="6" ry="6" x="530" y="-30" width="28" height="26" class="combo"/>
<text x="544" y="-18" class="combo tap">
<tspan x="544" dy="-0.6em">AGr+</tspan><tspan x="544" dy="1.2em">U</tspan>
</text>
</g>
<g class="combo combopos-6">
<path d="M214,282 h-110 a6.0,6.0 0 0 1 -6.0,-6.0 v-154" class="combo"/>
<path d="M214,282 h110 a6.0,6.0 0 0 0 6.0,-6.0 v-22" class="combo"/>
<rect rx="6" ry="6" x="200" y="268" width="28" height="26" class="combo"/>
<text x="214" y="282" class="combo tap">
<tspan x="214" dy="-0.6em">AGr+</tspan><tspan x="214" dy="1.2em">S</tspan>
</text>
</g>
<g class="combo combopos-7">
<path d="M165,-18 h-60 a6.0,6.0 0 0 0 -6.0,6.0 v22" class="combo"/>
<path d="M165,-18 h60 a6.0,6.0 0 0 1 6.0,6.0 v22" class="combo"/>
<rect rx="6" ry="6" x="151" y="-30" width="28" height="26" class="combo"/>
<text x="165" y="-18" class="combo tap"><tspan style="font-size: 70%">&amp;macro_sch</tspan></text>
</g>
<g class="combo combopos-8">
<rect rx="6" ry="6" x="646" y="152" width="28" height="26" class="combo"/>
<text x="660" y="165" class="combo tap">/</text>
</g>
<g class="combo combopos-9">
<rect rx="6" ry="6" x="580" y="152" width="28" height="26" class="combo"/>
<text x="594" y="165" class="combo tap">-</text>
</g>
<g class="combo combopos-10">
<rect rx="6" ry="6" x="679" y="119" width="28" height="26" class="combo"/>
<text x="693" y="132" class="combo tap">&#x27;</text>
</g>
<g class="combo combopos-11">
<rect rx="6" ry="6" x="547" y="119" width="28" height="26" class="combo"/>
<text x="561" y="132" class="combo tap">ESC</text>
</g>
<g class="combo combopos-12">
<rect rx="6" ry="6" x="85" y="53" width="28" height="26" class="combo"/>
<text x="99" y="66" class="combo tap">{</text>
</g>
<g class="combo combopos-13">
<rect rx="6" ry="6" x="151" y="53" width="28" height="26" class="combo"/>
<text x="165" y="66" class="combo tap">[</text>
</g>
<g class="combo combopos-14">
<rect rx="6" ry="6" x="217" y="53" width="28" height="26" class="combo"/>
<text x="231" y="66" class="combo tap">(</text>
</g>
<g class="combo combopos-15">
<rect rx="6" ry="6" x="283" y="86" width="28" height="26" class="combo"/>
<text x="297" y="99" class="combo tap">&lt;</text>
</g>
<g class="combo combopos-16">
<rect rx="6" ry="6" x="481" y="86" width="28" height="26" class="combo"/>
<text x="495" y="99" class="combo tap">&gt;</text>
</g>
<g class="combo combopos-17">
<rect rx="6" ry="6" x="547" y="53" width="28" height="26" class="combo"/>
<text x="561" y="66" class="combo tap">)</text>
</g>
<g class="combo combopos-18">
<rect rx="6" ry="6" x="613" y="53" width="28" height="26" class="combo"/>
<text x="627" y="66" class="combo tap">]</text>
</g>
<g class="combo combopos-19">
<rect rx="6" ry="6" x="679" y="53" width="28" height="26" class="combo"/>
<text x="693" y="66" class="combo tap">}</text>
</g>
<g class="combo combopos-20">
<path d="M396,99 l-143,0" class="combo"/>
<path d="M396,99 l143,0" class="combo"/>
<rect rx="6" ry="6" x="382" y="86" width="28" height="26" class="combo"/>
<text x="396" y="99" class="combo tap"><tspan style="font-size: 70%">&amp;caps_word</tspan></text>
</g>
<g class="combo combopos-21">
<path d="M396,-34 h-291 a6.0,6.0 0 0 0 -6.0,6.0 v39" class="combo"/>
<path d="M396,-34 h291 a6.0,6.0 0 0 1 6.0,6.0 v39" class="combo"/>
<rect rx="6" ry="6" x="382" y="-47" width="28" height="26" class="combo"/>
<text x="396" y="-34" class="combo tap"><tspan style="font-size: 88%">CAPSLOCK</tspan></text>
</g>
<g class="combo combopos-22">
<rect rx="6" ry="6" x="217" y="119" width="28" height="26" class="combo"/>
<text x="231" y="132" class="combo tap">BSPC</text>
</g>
<g class="combo combopos-23">
<rect rx="6" ry="6" x="646" y="20" width="28" height="26" class="combo"/>
<text x="660" y="33" class="combo tap">DEL</text>
</g>
<g class="combo combopos-24">
<path d="M627,-50 h-60 a6.0,6.0 0 0 0 -6.0,6.0 v56" class="combo"/>
<path d="M627,-50 h60 a6.0,6.0 0 0 1 6.0,6.0 v56" class="combo"/>
<rect rx="6" ry="6" x="613" y="-64" width="28" height="26" class="combo"/>
<text x="627" y="-50" class="combo tap">
<tspan x="627" dy="-0.6em">Ctl+</tspan><tspan x="627" dy="1.2em">BSPC</tspan>
</text>
</g>
</g>
</g>
<g transform="translate(30, 430)" class="layer-numbers">
<text x="0" y="28" class="label">numbers:</text>
<g transform="translate(0, 56)">
<g transform="translate(99, 33)" class="key keypos-0">
<rect rx="6" ry="6" x="-31" y="-31" width="62" height="62" class="key"/>
</g>
<g transform="translate(165, 33)" class="key keypos-1">
<rect rx="6" ry="6" x="-31" y="-31" width="62" height="62" class="key"/>
</g>
<g transform="translate(231, 33)" class="key keypos-2">
<rect rx="6" ry="6" x="-31" y="-31" width="62" height="62" class="key"/>
</g>
<g transform="translate(297, 66)" class="key keypos-3">
<rect rx="6" ry="6" x="-31" y="-31" width="62" height="62" class="key"/>
</g>
<g transform="translate(495, 66)" class="key keypos-4">
<rect rx="6" ry="6" x="-31" y="-31" width="62" height="62" class="key"/>
</g>
<g transform="translate(561, 33)" class="key keypos-5">
<rect rx="6" ry="6" x="-31" y="-31" width="62" height="62" class="key"/>
<text x="0" y="0" class="key tap">7</text>
</g>
<g transform="translate(627, 33)" class="key keypos-6">
<rect rx="6" ry="6" x="-31" y="-31" width="62" height="62" class="key"/>
<text x="0" y="0" class="key tap">8</text>
</g>
<g transform="translate(693, 33)" class="key keypos-7">
<rect rx="6" ry="6" x="-31" y="-31" width="62" height="62" class="key"/>
<text x="0" y="0" class="key tap">9</text>
</g>
<g transform="translate(33, 165)" class="key keypos-8">
<rect rx="6" ry="6" x="-31" y="-31" width="62" height="62" class="key"/>
<text x="0" y="0" class="key tap">+</text>
<text x="0" y="16" class="key hold">LCTRL</text>
</g>
<g transform="translate(99, 99)" class="key keypos-9">
<rect rx="6" ry="6" x="-31" y="-31" width="62" height="62" class="key"/>
<text x="0" y="0" class="key tap">-</text>
<text x="0" y="16" class="key hold">LALT</text>
</g>
<g transform="translate(165, 99)" class="key keypos-10">
<rect rx="6" ry="6" x="-31" y="-31" width="62" height="62" class="key"/>
<text x="0" y="0" class="key tap">*</text>
<text x="0" y="16" class="key hold">LGUI</text>
</g>
<g transform="translate(231, 99)" class="key keypos-11">
<rect rx="6" ry="6" x="-31" y="-31" width="62" height="62" class="key"/>
<text x="0" y="0" class="key tap">/</text>
<text x="0" y="16" class="key hold">LSHFT</text>
</g>
<g transform="translate(297, 132)" class="key keypos-12">
<rect rx="6" ry="6" x="-31" y="-31" width="62" height="62" class="key"/>
<text x="0" y="0" class="key tap">RALT</text>
</g>
<g transform="translate(495, 132)" class="key keypos-13">
<rect rx="6" ry="6" x="-31" y="-31" width="62" height="62" class="key"/>
</g>
<g transform="translate(561, 99)" class="key keypos-14">
<rect rx="6" ry="6" x="-31" y="-31" width="62" height="62" class="key"/>
<text x="0" y="0" class="key tap">4</text>
</g>
<g transform="translate(627, 99)" class="key keypos-15">
<rect rx="6" ry="6" x="-31" y="-31" width="62" height="62" class="key"/>
<text x="0" y="0" class="key tap">5</text>
</g>
<g transform="translate(693, 99)" class="key keypos-16">
<rect rx="6" ry="6" x="-31" y="-31" width="62" height="62" class="key"/>
<text x="0" y="0" class="key tap">6</text>
</g>
<g transform="translate(759, 165)" class="key keypos-17">
<rect rx="6" ry="6" x="-31" y="-31" width="62" height="62" class="key"/>
<text x="0" y="0" class="key tap">.</text>
</g>
<g transform="translate(99, 165)" class="key keypos-18">
<rect rx="6" ry="6" x="-31" y="-31" width="62" height="62" class="key"/>
<text x="0" y="0" class="key tap">9</text>
</g>
<g transform="translate(165, 165)" class="key keypos-19">
<rect rx="6" ry="6" x="-31" y="-31" width="62" height="62" class="key"/>
<text x="0" y="0" class="key tap">8</text>
</g>
<g transform="translate(231, 165)" class="key keypos-20">
<rect rx="6" ry="6" x="-31" y="-31" width="62" height="62" class="key"/>
<text x="0" y="0" class="key tap">7</text>
</g>
<g transform="translate(561, 165)" class="key keypos-21">
<rect rx="6" ry="6" x="-31" y="-31" width="62" height="62" class="key"/>
<text x="0" y="0" class="key tap">1</text>
</g>
<g transform="translate(627, 165)" class="key keypos-22">
<rect rx="6" ry="6" x="-31" y="-31" width="62" height="62" class="key"/>
<text x="0" y="0" class="key tap">2</text>
</g>
<g transform="translate(693, 165)" class="key keypos-23">
<rect rx="6" ry="6" x="-31" y="-31" width="62" height="62" class="key"/>
<text x="0" y="0" class="key tap">3</text>
</g>
<g transform="translate(264, 231)" class="key held keypos-24">
<rect rx="6" ry="6" x="-31" y="-31" width="62" height="62" class="key held"/>
</g>
<g transform="translate(330, 231)" class="key trans keypos-25">
<rect rx="6" ry="6" x="-31" y="-31" width="62" height="62" class="key trans"/>
<text x="0" y="0" class="key trans tap">▽</text>
</g>
<g transform="translate(462, 231)" class="key keypos-26">
<rect rx="6" ry="6" x="-31" y="-31" width="62" height="62" class="key"/>
<text x="0" y="0" class="key tap">E</text>
</g>
<g transform="translate(528, 231)" class="key keypos-27">
<rect rx="6" ry="6" x="-31" y="-31" width="62" height="62" class="key"/>
<text x="0" y="0" class="key tap">0</text>
</g>
</g>
</g>
<g transform="translate(30, 750)" class="layer-navigation">
<text x="0" y="28" class="label">navigation:</text>
<g transform="translate(0, 56)">
<g transform="translate(99, 33)" class="key keypos-0">
<rect rx="6" ry="6" x="-31" y="-31" width="62" height="62" class="key"/>
</g>
<g transform="translate(165, 33)" class="key keypos-1">
<rect rx="6" ry="6" x="-31" y="-31" width="62" height="62" class="key"/>
</g>
<g transform="translate(231, 33)" class="key keypos-2">
<rect rx="6" ry="6" x="-31" y="-31" width="62" height="62" class="key"/>
</g>
<g transform="translate(297, 66)" class="key keypos-3">
<rect rx="6" ry="6" x="-31" y="-31" width="62" height="62" class="key"/>
<text x="0" y="0" class="key tap">
<tspan x="0" dy="-0.6em">VOL</tspan><tspan x="0" dy="1.2em">UP</tspan>
</text>
</g>
<g transform="translate(495, 66)" class="key keypos-4">
<rect rx="6" ry="6" x="-31" y="-31" width="62" height="62" class="key"/>
<text x="0" y="0" class="key tap">
<tspan x="0" dy="-0.6em">Ctl+</tspan><tspan x="0" dy="1.2em">X</tspan>
</text>
</g>
<g transform="translate(561, 33)" class="key keypos-5">
<rect rx="6" ry="6" x="-31" y="-31" width="62" height="62" class="key"/>
<text x="0" y="0" class="key tap">
<tspan x="0" dy="-0.6em">Ctl+</tspan><tspan x="0" dy="1.2em">INSERT</tspan>
</text>
</g>
<g transform="translate(627, 33)" class="key keypos-6">
<rect rx="6" ry="6" x="-31" y="-31" width="62" height="62" class="key"/>
<text x="0" y="0" class="key tap">
<tspan x="0" dy="-0.6em">Sft+</tspan><tspan x="0" dy="1.2em">INSERT</tspan>
</text>
</g>
<g transform="translate(693, 33)" class="key keypos-7">
<rect rx="6" ry="6" x="-31" y="-31" width="62" height="62" class="key"/>
<text x="0" y="0" class="key tap">INSERT</text>
</g>
<g transform="translate(33, 165)" class="key keypos-8">
<rect rx="6" ry="6" x="-31" y="-31" width="62" height="62" class="key"/>
<text x="0" y="0" class="key tap">LCTRL</text>
<text x="0" y="16" class="key hold">sticky</text>
</g>
<g transform="translate(99, 99)" class="key keypos-9">
<rect rx="6" ry="6" x="-31" y="-31" width="62" height="62" class="key"/>
<text x="0" y="0" class="key tap">LALT</text>
<text x="0" y="16" class="key hold">sticky</text>
</g>
<g transform="translate(165, 99)" class="key keypos-10">
<rect rx="6" ry="6" x="-31" y="-31" width="62" height="62" class="key"/>
<text x="0" y="0" class="key tap">LGUI</text>
<text x="0" y="16" class="key hold">sticky</text>
</g>
<g transform="translate(231, 99)" class="key keypos-11">
<rect rx="6" ry="6" x="-31" y="-31" width="62" height="62" class="key"/>
<text x="0" y="0" class="key tap">LSHFT</text>
<text x="0" y="16" class="key hold">sticky</text>
</g>
<g transform="translate(297, 132)" class="key keypos-12">
<rect rx="6" ry="6" x="-31" y="-31" width="62" height="62" class="key"/>
<text x="0" y="0" class="key tap">
<tspan x="0" dy="-0.6em">VOL</tspan><tspan x="0" dy="1.2em">DN</tspan>
</text>
</g>
<g transform="translate(495, 132)" class="key keypos-13">
<rect rx="6" ry="6" x="-31" y="-31" width="62" height="62" class="key"/>
<text x="0" y="0" class="key tap">MUTE</text>
</g>
<g transform="translate(561, 99)" class="key keypos-14">
<rect rx="6" ry="6" x="-31" y="-31" width="62" height="62" class="key"/>
<text x="0" y="0" class="key tap">LEFT</text>
</g>
<g transform="translate(627, 99)" class="key keypos-15">
<rect rx="6" ry="6" x="-31" y="-31" width="62" height="62" class="key"/>
<text x="0" y="0" class="key tap">DOWN</text>
</g>
<g transform="translate(693, 99)" class="key keypos-16">
<rect rx="6" ry="6" x="-31" y="-31" width="62" height="62" class="key"/>
<text x="0" y="0" class="key tap">UP</text>
</g>
<g transform="translate(759, 165)" class="key keypos-17">
<rect rx="6" ry="6" x="-31" y="-31" width="62" height="62" class="key"/>
<text x="0" y="0" class="key tap">RIGHT</text>
</g>
<g transform="translate(99, 165)" class="key keypos-18">
<rect rx="6" ry="6" x="-31" y="-31" width="62" height="62" class="key"/>
<text x="0" y="0" class="key tap">HOME</text>
</g>
<g transform="translate(165, 165)" class="key keypos-19">
<rect rx="6" ry="6" x="-31" y="-31" width="62" height="62" class="key"/>
<text x="0" y="0" class="key tap">
<tspan x="0" dy="-0.6em">PG</tspan><tspan x="0" dy="1.2em">DN</tspan>
</text>
</g>
<g transform="translate(231, 165)" class="key keypos-20">
<rect rx="6" ry="6" x="-31" y="-31" width="62" height="62" class="key"/>
<text x="0" y="0" class="key tap">END</text>
</g>
<g transform="translate(561, 165)" class="key keypos-21">
<rect rx="6" ry="6" x="-31" y="-31" width="62" height="62" class="key"/>
<text x="0" y="0" class="key tap">HOME</text>
</g>
<g transform="translate(627, 165)" class="key keypos-22">
<rect rx="6" ry="6" x="-31" y="-31" width="62" height="62" class="key"/>
<text x="0" y="0" class="key tap">
<tspan x="0" dy="-0.6em">PG</tspan><tspan x="0" dy="1.2em">UP</tspan>
</text>
</g>
<g transform="translate(693, 165)" class="key keypos-23">
<rect rx="6" ry="6" x="-31" y="-31" width="62" height="62" class="key"/>
<text x="0" y="0" class="key tap">END</text>
</g>
<g transform="translate(264, 231)" class="key trans keypos-24">
<rect rx="6" ry="6" x="-31" y="-31" width="62" height="62" class="key trans"/>
<text x="0" y="0" class="key trans tap">▽</text>
</g>
<g transform="translate(330, 231)" class="key held keypos-25">
<rect rx="6" ry="6" x="-31" y="-31" width="62" height="62" class="key held"/>
</g>
<g transform="translate(462, 231)" class="key trans keypos-26">
<rect rx="6" ry="6" x="-31" y="-31" width="62" height="62" class="key trans"/>
<text x="0" y="0" class="key trans tap">▽</text>
</g>
<g transform="translate(528, 231)" class="key trans keypos-27">
<rect rx="6" ry="6" x="-31" y="-31" width="62" height="62" class="key trans"/>
<text x="0" y="0" class="key trans tap">▽</text>
</g>
</g>
</g>
<g transform="translate(30, 1070)" class="layer-symbols">
<text x="0" y="28" class="label">symbols:</text>
<g transform="translate(0, 56)">
<g transform="translate(99, 33)" class="key keypos-0">
<rect rx="6" ry="6" x="-31" y="-31" width="62" height="62" class="key"/>
</g>
<g transform="translate(165, 33)" class="key keypos-1">
<rect rx="6" ry="6" x="-31" y="-31" width="62" height="62" class="key"/>
</g>
<g transform="translate(231, 33)" class="key keypos-2">
<rect rx="6" ry="6" x="-31" y="-31" width="62" height="62" class="key"/>
</g>
<g transform="translate(297, 66)" class="key keypos-3">
<rect rx="6" ry="6" x="-31" y="-31" width="62" height="62" class="key"/>
</g>
<g transform="translate(495, 66)" class="key keypos-4">
<rect rx="6" ry="6" x="-31" y="-31" width="62" height="62" class="key"/>
</g>
<g transform="translate(561, 33)" class="key keypos-5">
<rect rx="6" ry="6" x="-31" y="-31" width="62" height="62" class="key"/>
</g>
<g transform="translate(627, 33)" class="key keypos-6">
<rect rx="6" ry="6" x="-31" y="-31" width="62" height="62" class="key"/>
</g>
<g transform="translate(693, 33)" class="key keypos-7">
<rect rx="6" ry="6" x="-31" y="-31" width="62" height="62" class="key"/>
</g>
<g transform="translate(33, 165)" class="key keypos-8">
<rect rx="6" ry="6" x="-31" y="-31" width="62" height="62" class="key"/>
<text x="0" y="0" class="key tap">!</text>
</g>
<g transform="translate(99, 99)" class="key keypos-9">
<rect rx="6" ry="6" x="-31" y="-31" width="62" height="62" class="key"/>
<text x="0" y="0" class="key tap">@</text>
</g>
<g transform="translate(165, 99)" class="key keypos-10">
<rect rx="6" ry="6" x="-31" y="-31" width="62" height="62" class="key"/>
<text x="0" y="0" class="key tap">#</text>
</g>
<g transform="translate(231, 99)" class="key keypos-11">
<rect rx="6" ry="6" x="-31" y="-31" width="62" height="62" class="key"/>
<text x="0" y="0" class="key tap">$</text>
</g>
<g transform="translate(297, 132)" class="key keypos-12">
<rect rx="6" ry="6" x="-31" y="-31" width="62" height="62" class="key"/>
</g>
<g transform="translate(495, 132)" class="key keypos-13">
<rect rx="6" ry="6" x="-31" y="-31" width="62" height="62" class="key"/>
</g>
<g transform="translate(561, 99)" class="key keypos-14">
<rect rx="6" ry="6" x="-31" y="-31" width="62" height="62" class="key"/>
<text x="0" y="0" class="key tap">&amp;</text>
</g>
<g transform="translate(627, 99)" class="key keypos-15">
<rect rx="6" ry="6" x="-31" y="-31" width="62" height="62" class="key"/>
<text x="0" y="0" class="key tap">*</text>
</g>
<g transform="translate(693, 99)" class="key keypos-16">
<rect rx="6" ry="6" x="-31" y="-31" width="62" height="62" class="key"/>
<text x="0" y="0" class="key tap">%</text>
</g>
<g transform="translate(759, 165)" class="key keypos-17">
<rect rx="6" ry="6" x="-31" y="-31" width="62" height="62" class="key"/>
<text x="0" y="0" class="key tap">^</text>
</g>
<g transform="translate(99, 165)" class="key keypos-18">
<rect rx="6" ry="6" x="-31" y="-31" width="62" height="62" class="key"/>
<text x="0" y="0" class="key tap">`</text>
</g>
<g transform="translate(165, 165)" class="key keypos-19">
<rect rx="6" ry="6" x="-31" y="-31" width="62" height="62" class="key"/>
<text x="0" y="0" class="key tap">&quot;</text>
</g>
<g transform="translate(231, 165)" class="key keypos-20">
<rect rx="6" ry="6" x="-31" y="-31" width="62" height="62" class="key"/>
<text x="0" y="0" class="key tap">_</text>
</g>
<g transform="translate(561, 165)" class="key keypos-21">
<rect rx="6" ry="6" x="-31" y="-31" width="62" height="62" class="key"/>
<text x="0" y="0" class="key tap">\</text>
</g>
<g transform="translate(627, 165)" class="key keypos-22">
<rect rx="6" ry="6" x="-31" y="-31" width="62" height="62" class="key"/>
<text x="0" y="0" class="key tap">|</text>
</g>
<g transform="translate(693, 165)" class="key keypos-23">
<rect rx="6" ry="6" x="-31" y="-31" width="62" height="62" class="key"/>
<text x="0" y="0" class="key tap">=</text>
</g>
<g transform="translate(264, 231)" class="key keypos-24">
<rect rx="6" ry="6" x="-31" y="-31" width="62" height="62" class="key"/>
<text x="0" y="0" class="key tap">~</text>
</g>
<g transform="translate(330, 231)" class="key trans keypos-25">
<rect rx="6" ry="6" x="-31" y="-31" width="62" height="62" class="key trans"/>
<text x="0" y="0" class="key trans tap">▽</text>
</g>
<g transform="translate(462, 231)" class="key held keypos-26">
<rect rx="6" ry="6" x="-31" y="-31" width="62" height="62" class="key held"/>
</g>
<g transform="translate(528, 231)" class="key trans keypos-27">
<rect rx="6" ry="6" x="-31" y="-31" width="62" height="62" class="key trans"/>
<text x="0" y="0" class="key trans tap">▽</text>
</g>
</g>
</g>
<g transform="translate(30, 1390)" class="layer-function">
<text x="0" y="28" class="label">function:</text>
<g transform="translate(0, 56)">
<g transform="translate(99, 33)" class="key keypos-0">
<rect rx="6" ry="6" x="-31" y="-31" width="62" height="62" class="key"/>
<text x="0" y="0" class="key tap"><tspan style="font-size: 64%">&amp;bootloader</tspan></text>
</g>
<g transform="translate(165, 33)" class="key trans keypos-1">
<rect rx="6" ry="6" x="-31" y="-31" width="62" height="62" class="key trans"/>
<text x="0" y="0" class="key trans tap">▽</text>
</g>
<g transform="translate(231, 33)" class="key trans keypos-2">
<rect rx="6" ry="6" x="-31" y="-31" width="62" height="62" class="key trans"/>
<text x="0" y="0" class="key trans tap">▽</text>
</g>
<g transform="translate(297, 66)" class="key trans keypos-3">
<rect rx="6" ry="6" x="-31" y="-31" width="62" height="62" class="key trans"/>
<text x="0" y="0" class="key trans tap">▽</text>
</g>
<g transform="translate(495, 66)" class="key keypos-4">
<rect rx="6" ry="6" x="-31" y="-31" width="62" height="62" class="key"/>
<text x="0" y="0" class="key tap">F12</text>
</g>
<g transform="translate(561, 33)" class="key keypos-5">
<rect rx="6" ry="6" x="-31" y="-31" width="62" height="62" class="key"/>
<text x="0" y="0" class="key tap">F7</text>
</g>
<g transform="translate(627, 33)" class="key keypos-6">
<rect rx="6" ry="6" x="-31" y="-31" width="62" height="62" class="key"/>
<text x="0" y="0" class="key tap">F8</text>
</g>
<g transform="translate(693, 33)" class="key keypos-7">
<rect rx="6" ry="6" x="-31" y="-31" width="62" height="62" class="key"/>
<text x="0" y="0" class="key tap">F9</text>
</g>
<g transform="translate(33, 165)" class="key keypos-8">
<rect rx="6" ry="6" x="-31" y="-31" width="62" height="62" class="key"/>
<text x="0" y="0" class="key tap"><tspan style="font-size: 64%">&amp;bootloader</tspan></text>
</g>
<g transform="translate(99, 99)" class="key keypos-9">
<rect rx="6" ry="6" x="-31" y="-31" width="62" height="62" class="key"/>
<text x="0" y="0" class="key tap">F12</text>
</g>
<g transform="translate(165, 99)" class="key keypos-10">
<rect rx="6" ry="6" x="-31" y="-31" width="62" height="62" class="key"/>
<text x="0" y="0" class="key tap">F11</text>
</g>
<g transform="translate(231, 99)" class="key keypos-11">
<rect rx="6" ry="6" x="-31" y="-31" width="62" height="62" class="key"/>
<text x="0" y="0" class="key tap">F10</text>
</g>
<g transform="translate(297, 132)" class="key trans keypos-12">
<rect rx="6" ry="6" x="-31" y="-31" width="62" height="62" class="key trans"/>
<text x="0" y="0" class="key trans tap">▽</text>
</g>
<g transform="translate(495, 132)" class="key keypos-13">
<rect rx="6" ry="6" x="-31" y="-31" width="62" height="62" class="key"/>
<text x="0" y="0" class="key tap">F11</text>
</g>
<g transform="translate(561, 99)" class="key keypos-14">
<rect rx="6" ry="6" x="-31" y="-31" width="62" height="62" class="key"/>
<text x="0" y="0" class="key tap">F4</text>
</g>
<g transform="translate(627, 99)" class="key keypos-15">
<rect rx="6" ry="6" x="-31" y="-31" width="62" height="62" class="key"/>
<text x="0" y="0" class="key tap">F5</text>
</g>
<g transform="translate(693, 99)" class="key keypos-16">
<rect rx="6" ry="6" x="-31" y="-31" width="62" height="62" class="key"/>
<text x="0" y="0" class="key tap">F6</text>
</g>
<g transform="translate(759, 165)" class="key keypos-17">
<rect rx="6" ry="6" x="-31" y="-31" width="62" height="62" class="key"/>
<text x="0" y="0" class="key tap">F10</text>
</g>
<g transform="translate(99, 165)" class="key keypos-18">
<rect rx="6" ry="6" x="-31" y="-31" width="62" height="62" class="key"/>
<text x="0" y="0" class="key tap">F9</text>
</g>
<g transform="translate(165, 165)" class="key keypos-19">
<rect rx="6" ry="6" x="-31" y="-31" width="62" height="62" class="key"/>
<text x="0" y="0" class="key tap">F8</text>
</g>
<g transform="translate(231, 165)" class="key keypos-20">
<rect rx="6" ry="6" x="-31" y="-31" width="62" height="62" class="key"/>
<text x="0" y="0" class="key tap">F7</text>
</g>
<g transform="translate(561, 165)" class="key keypos-21">
<rect rx="6" ry="6" x="-31" y="-31" width="62" height="62" class="key"/>
<text x="0" y="0" class="key tap">F1</text>
</g>
<g transform="translate(627, 165)" class="key keypos-22">
<rect rx="6" ry="6" x="-31" y="-31" width="62" height="62" class="key"/>
<text x="0" y="0" class="key tap">F2</text>
</g>
<g transform="translate(693, 165)" class="key keypos-23">
<rect rx="6" ry="6" x="-31" y="-31" width="62" height="62" class="key"/>
<text x="0" y="0" class="key tap">F3</text>
</g>
<g transform="translate(264, 231)" class="key trans keypos-24">
<rect rx="6" ry="6" x="-31" y="-31" width="62" height="62" class="key trans"/>
<text x="0" y="0" class="key trans tap">▽</text>
</g>
<g transform="translate(330, 231)" class="key trans keypos-25">
<rect rx="6" ry="6" x="-31" y="-31" width="62" height="62" class="key trans"/>
<text x="0" y="0" class="key trans tap">▽</text>
</g>
<g transform="translate(462, 231)" class="key trans keypos-26">
<rect rx="6" ry="6" x="-31" y="-31" width="62" height="62" class="key trans"/>
<text x="0" y="0" class="key trans tap">▽</text>
</g>
<g transform="translate(528, 231)" class="key held keypos-27">
<rect rx="6" ry="6" x="-31" y="-31" width="62" height="62" class="key held"/>
</g>
</g>
</g>
</svg>
