<svg width="852" height="1742" viewBox="0 0 852 1742" class="keymap" xmlns="http://www.w3.org/2000/svg" xmlns:xlink="http://www.w3.org/1999/xlink">
<defs>/* start glyphs */
<svg id="mdi:apple-keyboard-caps">
<svg xmlns="http://www.w3.org/2000/svg" id="mdi-apple-keyboard-caps" viewBox="0 0 24 24"><path d="M15,14V8H17.17L12,2.83L6.83,8H9V14H15M12,0L22,10H17V16H7V10H2L12,0M7,18H17V24H7V18M15,20H9V22H15V20Z" /></svg>
</svg>
<svg id="mdi:arrow-down-bold">
<svg xmlns="http://www.w3.org/2000/svg" id="mdi-arrow-down-bold" viewBox="0 0 24 24"><path d="M9,4H15V12H19.84L12,19.84L4.16,12H9V4Z" /></svg>
</svg>
<svg id="mdi:arrow-left-bold">
<svg xmlns="http://www.w3.org/2000/svg" id="mdi-arrow-left-bold" viewBox="0 0 24 24"><path d="M20,9V15H12V19.84L4.16,12L12,4.16V9H20Z" /></svg>
</svg>
<svg id="mdi:arrow-right-bold">
<svg xmlns="http://www.w3.org/2000/svg" id="mdi-arrow-right-bold" viewBox="0 0 24 24"><path d="M4,15V9H12V4.16L19.84,12L12,19.84V15H4Z" /></svg>
</svg>
<svg id="mdi:arrow-up-bold">
<svg xmlns="http://www.w3.org/2000/svg" id="mdi-arrow-up-bold" viewBox="0 0 24 24"><path d="M15,20H9V12H4.16L12,4.16L19.84,12H15V20Z" /></svg>
</svg>
<svg id="mdi:backspace-outline">
<svg xmlns="http://www.w3.org/2000/svg" id="mdi-backspace-outline" viewBox="0 0 24 24"><path d="M19,15.59L17.59,17L14,13.41L10.41,17L9,15.59L12.59,12L9,8.41L10.41,7L14,10.59L17.59,7L19,8.41L15.41,12L19,15.59M22,3A2,2 0 0,1 24,5V19A2,2 0 0,1 22,21H7C6.31,21 5.77,20.64 5.41,20.11L0,12L5.41,3.88C5.77,3.35 6.31,3 7,3H22M22,5H7L2.28,12L7,19H22V5Z" /></svg>
</svg>
<svg id="mdi:keyboard-esc">
<svg xmlns="http://www.w3.org/2000/svg" id="mdi-keyboard-esc" viewBox="0 0 24 24"><path d="M1 7H7V9H3V11H7V13H3V15H7V17H1V7M11 7H15V9H11V11H13C14.11 11 15 11.9 15 13V15C15 16.11 14.11 17 13 17H9V15H13V13H11C9.9 13 9 12.11 9 11V9C9 7.9 9.9 7 11 7M19 7H21C22.11 7 23 7.9 23 9V10H21V9H19V15H21V14H23V15C23 16.11 22.11 17 21 17H19C17.9 17 17 16.11 17 15V9C17 7.9 17.9 7 19 7Z" /></svg>
</svg>
<svg id="mdi:keyboard-return">
<svg xmlns="http://www.w3.org/2000/svg" id="mdi-keyboard-return" viewBox="0 0 24 24"><path d="M19,7V11H5.83L9.41,7.41L8,6L2,12L8,18L9.41,16.58L5.83,13H21V7H19Z" /></svg>
</svg>
<svg id="mdi:keyboard-space">
<svg xmlns="http://www.w3.org/2000/svg" id="mdi-keyboard-space" viewBox="0 0 24 24"><path d="M3 15H5V19H19V15H21V19C21 20.1 20.1 21 19 21H5C3.9 21 3 20.1 3 19V15Z" /></svg>
</svg>
<svg id="mdi:keyboard-tab">
<svg xmlns="http://www.w3.org/2000/svg" id="mdi-keyboard-tab" viewBox="0 0 24 24"><path d="M20,18H22V6H20M11.59,7.41L15.17,11H1V13H15.17L11.59,16.58L13,18L19,12L13,6L11.59,7.41Z" /></svg>
</svg>
<svg id="mdi:volume-high">
<svg xmlns="http://www.w3.org/2000/svg" id="mdi-volume-high" viewBox="0 0 24 24"><path d="M14,3.23V5.29C16.89,6.15 19,8.83 19,12C19,15.17 16.89,17.84 14,18.7V20.77C18,19.86 21,16.28 21,12C21,7.72 18,4.14 14,3.23M16.5,12C16.5,10.23 15.5,8.71 14,7.97V16C15.5,15.29 16.5,13.76 16.5,12M3,9V15H7L12,20V4L7,9H3Z" /></svg>
</svg>
<svg id="mdi:volume-low">
<svg xmlns="http://www.w3.org/2000/svg" id="mdi-volume-low" viewBox="0 0 24 24"><path d="M7,9V15H11L16,20V4L11,9H7Z" /></svg>
</svg>
<svg id="mdi:volume-off">
<svg xmlns="http://www.w3.org/2000/svg" id="mdi-volume-off" viewBox="0 0 24 24"><path d="M12,4L9.91,6.09L12,8.18M4.27,3L3,4.27L7.73,9H3V15H7L12,20V13.27L16.25,17.53C15.58,18.04 14.83,18.46 14,18.7V20.77C15.38,20.45 16.63,19.82 17.68,18.96L19.73,21L21,19.73L12,10.73M19,12C19,12.94 18.8,13.82 18.46,14.64L19.97,16.15C20.62,14.91 21,13.5 21,12C21,7.72 18,4.14 14,3.23V5.29C16.89,6.15 19,8.83 19,12M16.5,12C16.5,10.23 15.5,8.71 14,7.97V10.18L16.45,12.63C16.5,12.43 16.5,12.21 16.5,12Z" /></svg>
</svg>
</defs>/* end glyphs */
<style>/* inherit to force styles through use tags */
svg path {
    fill: inherit;
}

/* font and background color specifications */
svg.keymap {
    font-family: SFMono-Regular,Consolas,Liberation Mono,Menlo,monospace;
    font-size: 14px;
    font-kerning: normal;
    text-rendering: optimizeLegibility;
    fill: #24292e;
}

/* default key styling */
rect.key {
    fill: #f6f8fa;
}

rect.key, rect.combo {
    stroke: #c9cccf;
    stroke-width: 1;
}

/* default key side styling, only used is draw_key_sides is set */
rect.side {
    filter: brightness(90%);
}

/* color accent for combo boxes */
rect.combo, rect.combo-separate {
    fill: #cdf;
}

/* color accent for held keys */
rect.held, rect.combo.held {
    fill: #fdd;
}

/* color accent for ghost (optional) keys */
rect.ghost, rect.combo.ghost {
    stroke-dasharray: 4, 4;
    stroke-width: 2;
}

text {
    text-anchor: middle;
    dominant-baseline: middle;
}

/* styling for layer labels */
text.label {
    font-weight: bold;
    text-anchor: start;
    stroke: white;
    stroke-width: 4;
    paint-order: stroke;
}

/* styling for optional footer */
text.footer {
    text-anchor: end;
    dominant-baseline: auto;
    stroke: white;
    stroke-width: 4;
    paint-order: stroke;
}

/* styling for combo tap, and key hold/shifted label text */
text.combo, text.hold, text.shifted {
    font-size: 11px;
}

text.hold {
    text-anchor: middle;
    dominant-baseline: auto;
}

text.shifted {
    text-anchor: middle;
    dominant-baseline: hanging;
}

/* styling for hold/shifted label text in combo box */
text.combo.hold, text.combo.shifted {
    font-size: 8px;
}

/* lighter symbol for transparent keys */
text.trans {
    fill: #7b7e81;
}

/* styling for combo dendrons */
path.combo {
    stroke-width: 1;
    stroke: gray;
    fill: none;
}

/* Start Tabler Icons Cleanup */
/* cannot use height/width with glyphs */
.icon-tabler > path {
    fill: inherit;
    stroke: inherit;
    stroke-width: 2;
}
/* hide tabler's default box */
.icon-tabler > path[stroke="none"][fill="none"] {
    visibility: hidden;
}
/* End Tabler Icons Cleanup */
</style>
<g transform="translate(30, 0)" class="layer-aptmak">
<text x="0" y="28" class="label">aptmak:</text>
<g transform="translate(0, 107)">
<g transform="translate(99, 33)" class="key keypos-0">
<rect rx="60" ry="6" x="-23" y="-23" width="46" height="46" class="key"/>
<text x="0" y="0" class="key tap">W</text>
</g>
<g transform="translate(165, 33)" class="key keypos-1">
<rect rx="60" ry="6" x="-23" y="-23" width="46" height="46" class="key"/>
<text x="0" y="0" class="key tap">F</text>
</g>
<g transform="translate(231, 33)" class="key keypos-2">
<rect rx="60" ry="6" x="-23" y="-23" width="46" height="46" class="key"/>
<text x="0" y="0" class="key tap">P</text>
</g>
<g transform="translate(297, 66)" class="key keypos-3">
<rect rx="60" ry="6" x="-23" y="-23" width="46" height="46" class="key"/>
<text x="0" y="0" class="key tap">B</text>
</g>
<g transform="translate(495, 66)" class="key keypos-4">
<rect rx="60" ry="6" x="-23" y="-23" width="46" height="46" class="key"/>
<text x="0" y="0" class="key tap">J</text>
</g>
<g transform="translate(561, 33)" class="key keypos-5">
<rect rx="60" ry="6" x="-23" y="-23" width="46" height="46" class="key"/>
<text x="0" y="0" class="key tap">L</text>
</g>
<g transform="translate(627, 33)" class="key keypos-6">
<rect rx="60" ry="6" x="-23" y="-23" width="46" height="46" class="key"/>
<text x="0" y="0" class="key tap">U</text>
</g>
<g transform="translate(693, 33)" class="key keypos-7">
<rect rx="60" ry="6" x="-23" y="-23" width="46" height="46" class="key"/>
<text x="0" y="0" class="key tap">Y</text>
</g>
<g transform="translate(33, 165)" class="key keypos-8">
<rect rx="60" ry="6" x="-23" y="-23" width="46" height="46" class="key"/>
<text x="0" y="0" class="key tap">R</text>
</g>
<g transform="translate(99, 99)" class="key keypos-9">
<rect rx="60" ry="6" x="-23" y="-23" width="46" height="46" class="key"/>
<text x="0" y="0" class="key tap">S</text>
<text x="0" y="18" class="key hold">LALT</text>
</g>
<g transform="translate(165, 99)" class="key keypos-10">
<rect rx="60" ry="6" x="-23" y="-23" width="46" height="46" class="key"/>
<text x="0" y="0" class="key tap">T</text>
<text x="0" y="18" class="key hold">LSHFT</text>
</g>
<g transform="translate(231, 99)" class="key keypos-11">
<rect rx="60" ry="6" x="-23" y="-23" width="46" height="46" class="key"/>
<text x="0" y="0" class="key tap">H</text>
<text x="0" y="18" class="key hold">LCTRL</text>
</g>
<g transform="translate(297, 132)" class="key keypos-12">
<rect rx="60" ry="6" x="-23" y="-23" width="46" height="46" class="key"/>
<text x="0" y="0" class="key tap">K</text>
<text x="0" y="18" class="key hold">LGUI</text>
</g>
<g transform="translate(495, 132)" class="key keypos-13">
<rect rx="60" ry="6" x="-23" y="-23" width="46" height="46" class="key"/>
<text x="0" y="0" class="key tap">X</text>
<text x="0" y="18" class="key hold">LGUI</text>
</g>
<g transform="translate(561, 99)" class="key keypos-14">
<rect rx="60" ry="6" x="-23" y="-23" width="46" height="46" class="key"/>
<text x="0" y="0" class="key tap">N</text>
<text x="0" y="18" class="key hold">RCTRL</text>
</g>
<g transform="translate(627, 99)" class="key keypos-15">
<rect rx="60" ry="6" x="-23" y="-23" width="46" height="46" class="key"/>
<text x="0" y="0" class="key tap">A</text>
<text x="0" y="18" class="key hold">RSHFT</text>
</g>
<g transform="translate(693, 99)" class="key keypos-16">
<rect rx="60" ry="6" x="-23" y="-23" width="46" height="46" class="key"/>
<text x="0" y="0" class="key tap">I</text>
<text x="0" y="18" class="key hold">LALT</text>
</g>
<g transform="translate(759, 165)" class="key keypos-17">
<rect rx="60" ry="6" x="-23" y="-23" width="46" height="46" class="key"/>
<text x="0" y="0" class="key tap">O</text>
</g>
<g transform="translate(99, 165)" class="key keypos-18">
<rect rx="60" ry="6" x="-23" y="-23" width="46" height="46" class="key"/>
<text x="0" y="0" class="key tap">C</text>
</g>
<g transform="translate(165, 165)" class="key keypos-19">
<rect rx="60" ry="6" x="-23" y="-23" width="46" height="46" class="key"/>
<text x="0" y="0" class="key tap">G</text>
</g>
<g transform="translate(231, 165)" class="key keypos-20">
<rect rx="60" ry="6" x="-23" y="-23" width="46" height="46" class="key"/>
<text x="0" y="0" class="key tap">D</text>
</g>
<g transform="translate(561, 165)" class="key keypos-21">
<rect rx="60" ry="6" x="-23" y="-23" width="46" height="46" class="key"/>
<text x="0" y="0" class="key tap">M</text>
</g>
<g transform="translate(627, 165)" class="key keypos-22">
<rect rx="60" ry="6" x="-23" y="-23" width="46" height="46" class="key"/>
<text x="0" y="0" class="key tap">,</text>
<text x="0" y="-18" class="key shifted">;</text>
</g>
<g transform="translate(693, 165)" class="key keypos-23">
<rect rx="60" ry="6" x="-23" y="-23" width="46" height="46" class="key"/>
<text x="0" y="0" class="key tap">.</text>
<text x="0" y="-18" class="key shifted">:</text>
</g>
<g transform="translate(264, 231)" class="key keypos-24">
<rect rx="60" ry="6" x="-23" y="-23" width="46" height="46" class="key"/>
<text x="0" y="0" class="key tap">LSHIFT</text>
<text x="0" y="18" class="key hold">numbers</text>
</g>
<g transform="translate(330, 231)" class="key keypos-25">
<rect rx="60" ry="6" x="-23" y="-23" width="46" height="46" class="key"/>
<use href="#mdi:keyboard-space" xlink:href="#mdi:keyboard-space" x="-7" y="-7" height="14" width="14.0" class="key tap glyph mdi:keyboard-space"/>
<text x="0" y="18" class="key hold"><tspan style="font-size: 70%">navigation</tspan></text>
</g>
<g transform="translate(462, 231)" class="key keypos-26">
<rect rx="60" ry="6" x="-23" y="-23" width="46" height="46" class="key"/>
<text x="0" y="0" class="key tap">E</text>
<text x="0" y="18" class="key hold">symbols</text>
</g>
<g transform="translate(528, 231)" class="key keypos-27">
<rect rx="60" ry="6" x="-23" y="-23" width="46" height="46" class="key"/>
<use href="#mdi:keyboard-tab" xlink:href="#mdi:keyboard-tab" x="-7" y="-7" height="14" width="14.0" class="key tap glyph mdi:keyboard-tab"/>
<text x="0" y="18" class="key hold"><tspan style="font-size: 88%">function</tspan></text>
</g>
<g class="combo combopos-0">
<rect rx="60" ry="6" x="184" y="20" width="28" height="26" class="combo"/>
<text x="198" y="33" class="combo tap">Q</text>
</g>
<g class="combo combopos-1">
<rect rx="60" ry="6" x="118" y="152" width="28" height="26" class="combo"/>
<text x="132" y="165" class="combo tap">Z</text>
</g>
<g class="combo combopos-2">
<rect rx="60" ry="6" x="118" y="20" width="28" height="26" class="combo"/>
<text x="132" y="33" class="combo tap">V</text>
</g>
<g class="combo combopos-3">
<path d="M797,99 l-148,0" class="combo"/>
<path d="M797,99 v126 a6.0,6.0 0 0 1 -6.0,6.0 h-307" class="combo"/>
<rect rx="60" ry="6" x="783" y="86" width="28" height="26" class="combo"/>
<text x="797" y="99" class="combo tap">Ä</text>
</g>
<g class="combo combopos-4">
<path d="M610,269 h142 a6.0,6.0 0 0 0 6.0,-6.0 v-76" class="combo"/>
<path d="M610,269 h-142 a6.0,6.0 0 0 1 -6.0,-6.0 v-10" class="combo"/>
<rect rx="60" ry="6" x="596" y="256" width="28" height="26" class="combo"/>
<text x="610" y="269" class="combo tap">Ö</text>
</g>
<g class="combo combopos-5">
<path d="M462,-5 h159 a6.0,6.0 0 0 1 6.0,6.0 v10" class="combo"/>
<path d="M462,-5 l0,214" class="combo"/>
<rect rx="60" ry="6" x="448" y="-18" width="28" height="26" class="combo"/>
<text x="462" y="-5" class="combo tap">Ü</text>
</g>
<g class="combo combopos-6">
<path d="M214,286 h-110 a6.0,6.0 0 0 1 -6.0,-6.0 v-158" class="combo"/>
<path d="M214,286 h110 a6.0,6.0 0 0 0 6.0,-6.0 v-26" class="combo"/>
<rect rx="60" ry="6" x="200" y="272" width="28" height="26" class="combo"/>
<text x="214" y="286" class="combo tap">ẞ</text>
</g>
<g class="combo combopos-7">
<path d="M165,-22 h-60 a6.0,6.0 0 0 0 -6.0,6.0 v26" class="combo"/>
<path d="M165,-22 h60 a6.0,6.0 0 0 1 6.0,6.0 v26" class="combo"/>
<rect rx="60" ry="6" x="151" y="-34" width="28" height="26" class="combo"/>
<text x="165" y="-22" class="combo tap">SCH</text>
</g>
<g class="combo combopos-8">
<rect rx="60" ry="6" x="613" y="119" width="28" height="26" class="combo"/>
<text x="627" y="132" class="combo tap">
<tspan x="627" dy="-0.6em">!</tspan><tspan x="627" dy="1.2em">?</tspan>
</text>
</g>
<g class="combo combopos-9">
<rect rx="60" ry="6" x="646" y="152" width="28" height="26" class="combo"/>
<text x="660" y="165" class="combo tap">/</text>
</g>
<g class="combo combopos-10">
<rect rx="60" ry="6" x="580" y="152" width="28" height="26" class="combo"/>
<text x="594" y="165" class="combo tap">-</text>
</g>
<g class="combo enter combopos-11">
<rect rx="60" ry="6" x="217" y="119" width="28" height="26" class="combo enter"/>
<use href="#mdi:keyboard-return" xlink:href="#mdi:keyboard-return" x="224" y="125" height="14" width="14.0" class="combo enter tap glyph mdi:keyboard-return"/>
</g>
<g class="combo combopos-12">
<rect rx="60" ry="6" x="679" y="119" width="28" height="26" class="combo"/>
<text x="693" y="132" class="combo tap">&#x27;</text>
</g>
<g class="combo combopos-13">
<rect rx="60" ry="6" x="547" y="119" width="28" height="26" class="combo"/>
<use href="#mdi:keyboard-esc" xlink:href="#mdi:keyboard-esc" x="554" y="125" height="14" width="14.0" class="combo tap glyph mdi:keyboard-esc"/>
</g>
<g class="combo combopos-14">
<rect rx="60" ry="6" x="85" y="53" width="28" height="26" class="combo"/>
<text x="99" y="66" class="combo tap">{</text>
</g>
<g class="combo combopos-15">
<rect rx="60" ry="6" x="151" y="53" width="28" height="26" class="combo"/>
<text x="165" y="66" class="combo tap">[</text>
</g>
<g class="combo combopos-16">
<rect rx="60" ry="6" x="217" y="53" width="28" height="26" class="combo"/>
<text x="231" y="66" class="combo tap">(</text>
</g>
<g class="combo combopos-17">
<rect rx="60" ry="6" x="283" y="86" width="28" height="26" class="combo"/>
<text x="297" y="99" class="combo tap">&lt;</text>
</g>
<g class="combo combopos-18">
<rect rx="60" ry="6" x="481" y="86" width="28" height="26" class="combo"/>
<text x="495" y="99" class="combo tap">&gt;</text>
</g>
<g class="combo combopos-19">
<rect rx="60" ry="6" x="547" y="53" width="28" height="26" class="combo"/>
<text x="561" y="66" class="combo tap">)</text>
</g>
<g class="combo combopos-20">
<rect rx="60" ry="6" x="613" y="53" width="28" height="26" class="combo"/>
<text x="627" y="66" class="combo tap">]</text>
</g>
<g class="combo combopos-21">
<rect rx="60" ry="6" x="679" y="53" width="28" height="26" class="combo"/>
<text x="693" y="66" class="combo tap">}</text>
</g>
<g class="combo combopos-22">
<path d="M396,99 l-143,0" class="combo"/>
<path d="M396,99 l143,0" class="combo"/>
<rect rx="60" ry="6" x="382" y="86" width="28" height="26" class="combo"/>
<text x="396" y="99" class="combo tap">
<tspan x="396" dy="-0.6em">Caps</tspan><tspan x="396" dy="1.2em">Word</tspan>
</text>
</g>
<g class="combo combopos-23">
<path d="M396,-38 h-291 a6.0,6.0 0 0 0 -6.0,6.0 v43" class="combo"/>
<path d="M396,-38 h291 a6.0,6.0 0 0 1 6.0,6.0 v43" class="combo"/>
<rect rx="60" ry="6" x="382" y="-51" width="28" height="26" class="combo"/>
<use href="#mdi:apple-keyboard-caps" xlink:href="#mdi:apple-keyboard-caps" x="389" y="-45" height="14" width="14.0" class="combo tap glyph mdi:apple-keyboard-caps"/>
</g>
<g class="combo backspace combopos-24">
<rect rx="60" ry="6" x="151" y="119" width="28" height="26" class="combo backspace"/>
<use href="#mdi:backspace-outline" xlink:href="#mdi:backspace-outline" x="158" y="125" height="14" width="14.0" class="combo backspace tap glyph mdi:backspace-outline"/>
</g>
</g>
</g>
<g transform="translate(30, 406)" class="layer-numbers">
<text x="0" y="28" class="label">numbers:</text>
<g transform="translate(0, 56)">
<g transform="translate(99, 33)" class="key keypos-0">
<rect rx="60" ry="6" x="-23" y="-23" width="46" height="46" class="key"/>
</g>
<g transform="translate(165, 33)" class="key keypos-1">
<rect rx="60" ry="6" x="-23" y="-23" width="46" height="46" class="key"/>
</g>
<g transform="translate(231, 33)" class="key keypos-2">
<rect rx="60" ry="6" x="-23" y="-23" width="46" height="46" class="key"/>
</g>
<g transform="translate(297, 66)" class="key keypos-3">
<rect rx="60" ry="6" x="-23" y="-23" width="46" height="46" class="key"/>
</g>
<g transform="translate(495, 66)" class="key keypos-4">
<rect rx="60" ry="6" x="-23" y="-23" width="46" height="46" class="key"/>
</g>
<g transform="translate(561, 33)" class="key keypos-5">
<rect rx="60" ry="6" x="-23" y="-23" width="46" height="46" class="key"/>
<text x="0" y="0" class="key tap">7</text>
</g>
<g transform="translate(627, 33)" class="key keypos-6">
<rect rx="60" ry="6" x="-23" y="-23" width="46" height="46" class="key"/>
<text x="0" y="0" class="key tap">8</text>
</g>
<g transform="translate(693, 33)" class="key keypos-7">
<rect rx="60" ry="6" x="-23" y="-23" width="46" height="46" class="key"/>
<text x="0" y="0" class="key tap">9</text>
</g>
<g transform="translate(33, 165)" class="key keypos-8">
<rect rx="60" ry="6" x="-23" y="-23" width="46" height="46" class="key"/>
<text x="0" y="0" class="key tap">+</text>
<text x="0" y="18" class="key hold">LCTRL</text>
</g>
<g transform="translate(99, 99)" class="key keypos-9">
<rect rx="60" ry="6" x="-23" y="-23" width="46" height="46" class="key"/>
<text x="0" y="0" class="key tap">-</text>
<text x="0" y="18" class="key hold">LALT</text>
</g>
<g transform="translate(165, 99)" class="key keypos-10">
<rect rx="60" ry="6" x="-23" y="-23" width="46" height="46" class="key"/>
<text x="0" y="0" class="key tap">*</text>
<text x="0" y="18" class="key hold">LGUI</text>
</g>
<g transform="translate(231, 99)" class="key keypos-11">
<rect rx="60" ry="6" x="-23" y="-23" width="46" height="46" class="key"/>
<text x="0" y="0" class="key tap">/</text>
<text x="0" y="18" class="key hold">LSHFT</text>
</g>
<g transform="translate(297, 132)" class="key keypos-12">
<rect rx="60" ry="6" x="-23" y="-23" width="46" height="46" class="key"/>
<text x="0" y="0" class="key tap">RALT</text>
</g>
<g transform="translate(495, 132)" class="key keypos-13">
<rect rx="60" ry="6" x="-23" y="-23" width="46" height="46" class="key"/>
</g>
<g transform="translate(561, 99)" class="key keypos-14">
<rect rx="60" ry="6" x="-23" y="-23" width="46" height="46" class="key"/>
<text x="0" y="0" class="key tap">4</text>
</g>
<g transform="translate(627, 99)" class="key keypos-15">
<rect rx="60" ry="6" x="-23" y="-23" width="46" height="46" class="key"/>
<text x="0" y="0" class="key tap">5</text>
</g>
<g transform="translate(693, 99)" class="key keypos-16">
<rect rx="60" ry="6" x="-23" y="-23" width="46" height="46" class="key"/>
<text x="0" y="0" class="key tap">6</text>
</g>
<g transform="translate(759, 165)" class="key keypos-17">
<rect rx="60" ry="6" x="-23" y="-23" width="46" height="46" class="key"/>
<text x="0" y="0" class="key tap">.</text>
</g>
<g transform="translate(99, 165)" class="key keypos-18">
<rect rx="60" ry="6" x="-23" y="-23" width="46" height="46" class="key"/>
<text x="0" y="0" class="key tap">9</text>
</g>
<g transform="translate(165, 165)" class="key keypos-19">
<rect rx="60" ry="6" x="-23" y="-23" width="46" height="46" class="key"/>
<text x="0" y="0" class="key tap">8</text>
</g>
<g transform="translate(231, 165)" class="key keypos-20">
<rect rx="60" ry="6" x="-23" y="-23" width="46" height="46" class="key"/>
<text x="0" y="0" class="key tap">7</text>
</g>
<g transform="translate(561, 165)" class="key keypos-21">
<rect rx="60" ry="6" x="-23" y="-23" width="46" height="46" class="key"/>
<text x="0" y="0" class="key tap">1</text>
</g>
<g transform="translate(627, 165)" class="key keypos-22">
<rect rx="60" ry="6" x="-23" y="-23" width="46" height="46" class="key"/>
<text x="0" y="0" class="key tap">2</text>
</g>
<g transform="translate(693, 165)" class="key keypos-23">
<rect rx="60" ry="6" x="-23" y="-23" width="46" height="46" class="key"/>
<text x="0" y="0" class="key tap">3</text>
</g>
<g transform="translate(264, 231)" class="key held keypos-24">
<rect rx="60" ry="6" x="-23" y="-23" width="46" height="46" class="key held"/>
<text x="0" y="0" class="key held tap">▽</text>
</g>
<g transform="translate(330, 231)" class="key trans keypos-25">
<rect rx="60" ry="6" x="-23" y="-23" width="46" height="46" class="key trans"/>
<text x="0" y="0" class="key trans tap">▽</text>
</g>
<g transform="translate(462, 231)" class="key keypos-26">
<rect rx="60" ry="6" x="-23" y="-23" width="46" height="46" class="key"/>
<text x="0" y="0" class="key tap">E</text>
</g>
<g transform="translate(528, 231)" class="key keypos-27">
<rect rx="60" ry="6" x="-23" y="-23" width="46" height="46" class="key"/>
<text x="0" y="0" class="key tap">0</text>
</g>
</g>
</g>
<g transform="translate(30, 726)" class="layer-navigation">
<text x="0" y="28" class="label">navigation:</text>
<g transform="translate(0, 56)">
<g transform="translate(99, 33)" class="key keypos-0">
<rect rx="60" ry="6" x="-23" y="-23" width="46" height="46" class="key"/>
</g>
<g transform="translate(165, 33)" class="key keypos-1">
<rect rx="60" ry="6" x="-23" y="-23" width="46" height="46" class="key"/>
</g>
<g transform="translate(231, 33)" class="key keypos-2">
<rect rx="60" ry="6" x="-23" y="-23" width="46" height="46" class="key"/>
</g>
<g transform="translate(297, 66)" class="key keypos-3">
<rect rx="60" ry="6" x="-23" y="-23" width="46" height="46" class="key"/>
<use href="#mdi:volume-high" xlink:href="#mdi:volume-high" x="-7" y="-7" height="14" width="14.0" class="key tap glyph mdi:volume-high"/>
</g>
<g transform="translate(495, 66)" class="key keypos-4">
<rect rx="60" ry="6" x="-23" y="-23" width="46" height="46" class="key"/>
<text x="0" y="0" class="key tap">
<tspan x="0" dy="-0.6em">Ctl+</tspan><tspan x="0" dy="1.2em">X</tspan>
</text>
</g>
<g transform="translate(561, 33)" class="key keypos-5">
<rect rx="60" ry="6" x="-23" y="-23" width="46" height="46" class="key"/>
<text x="0" y="0" class="key tap">
<tspan x="0" dy="-0.6em">Ctl+</tspan><tspan x="0" dy="1.2em">INSERT</tspan>
</text>
</g>
<g transform="translate(627, 33)" class="key keypos-6">
<rect rx="60" ry="6" x="-23" y="-23" width="46" height="46" class="key"/>
<text x="0" y="0" class="key tap">
<tspan x="0" dy="-0.6em">Sft+</tspan><tspan x="0" dy="1.2em">INSERT</tspan>
</text>
</g>
<g transform="translate(693, 33)" class="key keypos-7">
<rect rx="60" ry="6" x="-23" y="-23" width="46" height="46" class="key"/>
<text x="0" y="0" class="key tap">INSERT</text>
</g>
<g transform="translate(33, 165)" class="key keypos-8">
<rect rx="60" ry="6" x="-23" y="-23" width="46" height="46" class="key"/>
<text x="0" y="0" class="key tap">LCTRL</text>
<text x="0" y="18" class="key hold">sticky</text>
</g>
<g transform="translate(99, 99)" class="key keypos-9">
<rect rx="60" ry="6" x="-23" y="-23" width="46" height="46" class="key"/>
<text x="0" y="0" class="key tap">LALT</text>
<text x="0" y="18" class="key hold">sticky</text>
</g>
<g transform="translate(165, 99)" class="key keypos-10">
<rect rx="60" ry="6" x="-23" y="-23" width="46" height="46" class="key"/>
<text x="0" y="0" class="key tap">LGUI</text>
<text x="0" y="18" class="key hold">sticky</text>
</g>
<g transform="translate(231, 99)" class="key keypos-11">
<rect rx="60" ry="6" x="-23" y="-23" width="46" height="46" class="key"/>
<text x="0" y="0" class="key tap">LSHFT</text>
<text x="0" y="18" class="key hold">sticky</text>
</g>
<g transform="translate(297, 132)" class="key keypos-12">
<rect rx="60" ry="6" x="-23" y="-23" width="46" height="46" class="key"/>
<use href="#mdi:volume-low" xlink:href="#mdi:volume-low" x="-7" y="-7" height="14" width="14.0" class="key tap glyph mdi:volume-low"/>
</g>
<g transform="translate(495, 132)" class="key keypos-13">
<rect rx="60" ry="6" x="-23" y="-23" width="46" height="46" class="key"/>
<use href="#mdi:volume-off" xlink:href="#mdi:volume-off" x="-7" y="-7" height="14" width="14.0" class="key tap glyph mdi:volume-off"/>
</g>
<g transform="translate(561, 99)" class="key keypos-14">
<rect rx="60" ry="6" x="-23" y="-23" width="46" height="46" class="key"/>
<use href="#mdi:arrow-left-bold" xlink:href="#mdi:arrow-left-bold" x="-7" y="-7" height="14" width="14.0" class="key tap glyph mdi:arrow-left-bold"/>
</g>
<g transform="translate(627, 99)" class="key keypos-15">
<rect rx="60" ry="6" x="-23" y="-23" width="46" height="46" class="key"/>
<use href="#mdi:arrow-down-bold" xlink:href="#mdi:arrow-down-bold" x="-7" y="-7" height="14" width="14.0" class="key tap glyph mdi:arrow-down-bold"/>
</g>
<g transform="translate(693, 99)" class="key keypos-16">
<rect rx="60" ry="6" x="-23" y="-23" width="46" height="46" class="key"/>
<use href="#mdi:arrow-up-bold" xlink:href="#mdi:arrow-up-bold" x="-7" y="-7" height="14" width="14.0" class="key tap glyph mdi:arrow-up-bold"/>
</g>
<g transform="translate(759, 165)" class="key keypos-17">
<rect rx="60" ry="6" x="-23" y="-23" width="46" height="46" class="key"/>
<use href="#mdi:arrow-right-bold" xlink:href="#mdi:arrow-right-bold" x="-7" y="-7" height="14" width="14.0" class="key tap glyph mdi:arrow-right-bold"/>
</g>
<g transform="translate(99, 165)" class="key keypos-18">
<rect rx="60" ry="6" x="-23" y="-23" width="46" height="46" class="key"/>
<text x="0" y="0" class="key tap">HOME</text>
</g>
<g transform="translate(165, 165)" class="key keypos-19">
<rect rx="60" ry="6" x="-23" y="-23" width="46" height="46" class="key"/>
<text x="0" y="0" class="key tap">
<tspan x="0" dy="-0.6em">PG</tspan><tspan x="0" dy="1.2em">DN</tspan>
</text>
</g>
<g transform="translate(231, 165)" class="key keypos-20">
<rect rx="60" ry="6" x="-23" y="-23" width="46" height="46" class="key"/>
<text x="0" y="0" class="key tap">END</text>
</g>
<g transform="translate(561, 165)" class="key keypos-21">
<rect rx="60" ry="6" x="-23" y="-23" width="46" height="46" class="key"/>
<text x="0" y="0" class="key tap">HOME</text>
</g>
<g transform="translate(627, 165)" class="key keypos-22">
<rect rx="60" ry="6" x="-23" y="-23" width="46" height="46" class="key"/>
<text x="0" y="0" class="key tap">
<tspan x="0" dy="-0.6em">PG</tspan><tspan x="0" dy="1.2em">UP</tspan>
</text>
</g>
<g transform="translate(693, 165)" class="key keypos-23">
<rect rx="60" ry="6" x="-23" y="-23" width="46" height="46" class="key"/>
<text x="0" y="0" class="key tap">END</text>
</g>
<g transform="translate(264, 231)" class="key trans keypos-24">
<rect rx="60" ry="6" x="-23" y="-23" width="46" height="46" class="key trans"/>
<text x="0" y="0" class="key trans tap">▽</text>
</g>
<g transform="translate(330, 231)" class="key held keypos-25">
<rect rx="60" ry="6" x="-23" y="-23" width="46" height="46" class="key held"/>
</g>
<g transform="translate(462, 231)" class="key trans keypos-26">
<rect rx="60" ry="6" x="-23" y="-23" width="46" height="46" class="key trans"/>
<text x="0" y="0" class="key trans tap">▽</text>
</g>
<g transform="translate(528, 231)" class="key trans keypos-27">
<rect rx="60" ry="6" x="-23" y="-23" width="46" height="46" class="key trans"/>
<text x="0" y="0" class="key trans tap">▽</text>
</g>
</g>
</g>
<g transform="translate(30, 1046)" class="layer-symbols">
<text x="0" y="28" class="label">symbols:</text>
<g transform="translate(0, 56)">
<g transform="translate(99, 33)" class="key keypos-0">
<rect rx="60" ry="6" x="-23" y="-23" width="46" height="46" class="key"/>
</g>
<g transform="translate(165, 33)" class="key keypos-1">
<rect rx="60" ry="6" x="-23" y="-23" width="46" height="46" class="key"/>
</g>
<g transform="translate(231, 33)" class="key keypos-2">
<rect rx="60" ry="6" x="-23" y="-23" width="46" height="46" class="key"/>
</g>
<g transform="translate(297, 66)" class="key keypos-3">
<rect rx="60" ry="6" x="-23" y="-23" width="46" height="46" class="key"/>
</g>
<g transform="translate(495, 66)" class="key keypos-4">
<rect rx="60" ry="6" x="-23" y="-23" width="46" height="46" class="key"/>
</g>
<g transform="translate(561, 33)" class="key keypos-5">
<rect rx="60" ry="6" x="-23" y="-23" width="46" height="46" class="key"/>
</g>
<g transform="translate(627, 33)" class="key keypos-6">
<rect rx="60" ry="6" x="-23" y="-23" width="46" height="46" class="key"/>
</g>
<g transform="translate(693, 33)" class="key keypos-7">
<rect rx="60" ry="6" x="-23" y="-23" width="46" height="46" class="key"/>
</g>
<g transform="translate(33, 165)" class="key keypos-8">
<rect rx="60" ry="6" x="-23" y="-23" width="46" height="46" class="key"/>
<text x="0" y="0" class="key tap">!</text>
</g>
<g transform="translate(99, 99)" class="key keypos-9">
<rect rx="60" ry="6" x="-23" y="-23" width="46" height="46" class="key"/>
<text x="0" y="0" class="key tap">@</text>
</g>
<g transform="translate(165, 99)" class="key keypos-10">
<rect rx="60" ry="6" x="-23" y="-23" width="46" height="46" class="key"/>
<text x="0" y="0" class="key tap">#</text>
</g>
<g transform="translate(231, 99)" class="key keypos-11">
<rect rx="60" ry="6" x="-23" y="-23" width="46" height="46" class="key"/>
<text x="0" y="0" class="key tap">$</text>
</g>
<g transform="translate(297, 132)" class="key keypos-12">
<rect rx="60" ry="6" x="-23" y="-23" width="46" height="46" class="key"/>
</g>
<g transform="translate(495, 132)" class="key keypos-13">
<rect rx="60" ry="6" x="-23" y="-23" width="46" height="46" class="key"/>
</g>
<g transform="translate(561, 99)" class="key keypos-14">
<rect rx="60" ry="6" x="-23" y="-23" width="46" height="46" class="key"/>
<text x="0" y="0" class="key tap">&amp;</text>
</g>
<g transform="translate(627, 99)" class="key keypos-15">
<rect rx="60" ry="6" x="-23" y="-23" width="46" height="46" class="key"/>
<text x="0" y="0" class="key tap">*</text>
</g>
<g transform="translate(693, 99)" class="key keypos-16">
<rect rx="60" ry="6" x="-23" y="-23" width="46" height="46" class="key"/>
<text x="0" y="0" class="key tap">%</text>
</g>
<g transform="translate(759, 165)" class="key keypos-17">
<rect rx="60" ry="6" x="-23" y="-23" width="46" height="46" class="key"/>
<text x="0" y="0" class="key tap">^</text>
</g>
<g transform="translate(99, 165)" class="key keypos-18">
<rect rx="60" ry="6" x="-23" y="-23" width="46" height="46" class="key"/>
<text x="0" y="0" class="key tap">`</text>
</g>
<g transform="translate(165, 165)" class="key keypos-19">
<rect rx="60" ry="6" x="-23" y="-23" width="46" height="46" class="key"/>
<text x="0" y="0" class="key tap">&quot;</text>
</g>
<g transform="translate(231, 165)" class="key keypos-20">
<rect rx="60" ry="6" x="-23" y="-23" width="46" height="46" class="key"/>
<text x="0" y="0" class="key tap">_</text>
</g>
<g transform="translate(561, 165)" class="key keypos-21">
<rect rx="60" ry="6" x="-23" y="-23" width="46" height="46" class="key"/>
<text x="0" y="0" class="key tap">\</text>
</g>
<g transform="translate(627, 165)" class="key keypos-22">
<rect rx="60" ry="6" x="-23" y="-23" width="46" height="46" class="key"/>
<text x="0" y="0" class="key tap">|</text>
</g>
<g transform="translate(693, 165)" class="key keypos-23">
<rect rx="60" ry="6" x="-23" y="-23" width="46" height="46" class="key"/>
<text x="0" y="0" class="key tap">=</text>
</g>
<g transform="translate(264, 231)" class="key keypos-24">
<rect rx="60" ry="6" x="-23" y="-23" width="46" height="46" class="key"/>
<text x="0" y="0" class="key tap">~</text>
</g>
<g transform="translate(330, 231)" class="key trans keypos-25">
<rect rx="60" ry="6" x="-23" y="-23" width="46" height="46" class="key trans"/>
<text x="0" y="0" class="key trans tap">▽</text>
</g>
<g transform="translate(462, 231)" class="key held keypos-26">
<rect rx="60" ry="6" x="-23" y="-23" width="46" height="46" class="key held"/>
</g>
<g transform="translate(528, 231)" class="key trans keypos-27">
<rect rx="60" ry="6" x="-23" y="-23" width="46" height="46" class="key trans"/>
<text x="0" y="0" class="key trans tap">▽</text>
</g>
</g>
</g>
<g transform="translate(30, 1366)" class="layer-function">
<text x="0" y="28" class="label">function:</text>
<g transform="translate(0, 56)">
<g transform="translate(99, 33)" class="key keypos-0">
<rect rx="60" ry="6" x="-23" y="-23" width="46" height="46" class="key"/>
<text x="0" y="0" class="key tap"><tspan style="font-size: 64%">&amp;bootloader</tspan></text>
</g>
<g transform="translate(165, 33)" class="key trans keypos-1">
<rect rx="60" ry="6" x="-23" y="-23" width="46" height="46" class="key trans"/>
<text x="0" y="0" class="key trans tap">▽</text>
</g>
<g transform="translate(231, 33)" class="key trans keypos-2">
<rect rx="60" ry="6" x="-23" y="-23" width="46" height="46" class="key trans"/>
<text x="0" y="0" class="key trans tap">▽</text>
</g>
<g transform="translate(297, 66)" class="key trans keypos-3">
<rect rx="60" ry="6" x="-23" y="-23" width="46" height="46" class="key trans"/>
<text x="0" y="0" class="key trans tap">▽</text>
</g>
<g transform="translate(495, 66)" class="key keypos-4">
<rect rx="60" ry="6" x="-23" y="-23" width="46" height="46" class="key"/>
<text x="0" y="0" class="key tap">F12</text>
</g>
<g transform="translate(561, 33)" class="key keypos-5">
<rect rx="60" ry="6" x="-23" y="-23" width="46" height="46" class="key"/>
<text x="0" y="0" class="key tap">F7</text>
</g>
<g transform="translate(627, 33)" class="key keypos-6">
<rect rx="60" ry="6" x="-23" y="-23" width="46" height="46" class="key"/>
<text x="0" y="0" class="key tap">F8</text>
</g>
<g transform="translate(693, 33)" class="key keypos-7">
<rect rx="60" ry="6" x="-23" y="-23" width="46" height="46" class="key"/>
<text x="0" y="0" class="key tap">F9</text>
</g>
<g transform="translate(33, 165)" class="key keypos-8">
<rect rx="60" ry="6" x="-23" y="-23" width="46" height="46" class="key"/>
<text x="0" y="0" class="key tap"><tspan style="font-size: 64%">&amp;bootloader</tspan></text>
</g>
<g transform="translate(99, 99)" class="key keypos-9">
<rect rx="60" ry="6" x="-23" y="-23" width="46" height="46" class="key"/>
<text x="0" y="0" class="key tap">F12</text>
</g>
<g transform="translate(165, 99)" class="key keypos-10">
<rect rx="60" ry="6" x="-23" y="-23" width="46" height="46" class="key"/>
<text x="0" y="0" class="key tap">F11</text>
</g>
<g transform="translate(231, 99)" class="key keypos-11">
<rect rx="60" ry="6" x="-23" y="-23" width="46" height="46" class="key"/>
<text x="0" y="0" class="key tap">F10</text>
</g>
<g transform="translate(297, 132)" class="key trans keypos-12">
<rect rx="60" ry="6" x="-23" y="-23" width="46" height="46" class="key trans"/>
<text x="0" y="0" class="key trans tap">▽</text>
</g>
<g transform="translate(495, 132)" class="key keypos-13">
<rect rx="60" ry="6" x="-23" y="-23" width="46" height="46" class="key"/>
<text x="0" y="0" class="key tap">F11</text>
</g>
<g transform="translate(561, 99)" class="key keypos-14">
<rect rx="60" ry="6" x="-23" y="-23" width="46" height="46" class="key"/>
<text x="0" y="0" class="key tap">F4</text>
</g>
<g transform="translate(627, 99)" class="key keypos-15">
<rect rx="60" ry="6" x="-23" y="-23" width="46" height="46" class="key"/>
<text x="0" y="0" class="key tap">F5</text>
</g>
<g transform="translate(693, 99)" class="key keypos-16">
<rect rx="60" ry="6" x="-23" y="-23" width="46" height="46" class="key"/>
<text x="0" y="0" class="key tap">F6</text>
</g>
<g transform="translate(759, 165)" class="key keypos-17">
<rect rx="60" ry="6" x="-23" y="-23" width="46" height="46" class="key"/>
<text x="0" y="0" class="key tap">F10</text>
</g>
<g transform="translate(99, 165)" class="key keypos-18">
<rect rx="60" ry="6" x="-23" y="-23" width="46" height="46" class="key"/>
<text x="0" y="0" class="key tap">F9</text>
</g>
<g transform="translate(165, 165)" class="key keypos-19">
<rect rx="60" ry="6" x="-23" y="-23" width="46" height="46" class="key"/>
<text x="0" y="0" class="key tap">F8</text>
</g>
<g transform="translate(231, 165)" class="key keypos-20">
<rect rx="60" ry="6" x="-23" y="-23" width="46" height="46" class="key"/>
<text x="0" y="0" class="key tap">F7</text>
</g>
<g transform="translate(561, 165)" class="key keypos-21">
<rect rx="60" ry="6" x="-23" y="-23" width="46" height="46" class="key"/>
<text x="0" y="0" class="key tap">F1</text>
</g>
<g transform="translate(627, 165)" class="key keypos-22">
<rect rx="60" ry="6" x="-23" y="-23" width="46" height="46" class="key"/>
<text x="0" y="0" class="key tap">F2</text>
</g>
<g transform="translate(693, 165)" class="key keypos-23">
<rect rx="60" ry="6" x="-23" y="-23" width="46" height="46" class="key"/>
<text x="0" y="0" class="key tap">F3</text>
</g>
<g transform="translate(264, 231)" class="key trans keypos-24">
<rect rx="60" ry="6" x="-23" y="-23" width="46" height="46" class="key trans"/>
<text x="0" y="0" class="key trans tap">▽</text>
</g>
<g transform="translate(330, 231)" class="key trans keypos-25">
<rect rx="60" ry="6" x="-23" y="-23" width="46" height="46" class="key trans"/>
<text x="0" y="0" class="key trans tap">▽</text>
</g>
<g transform="translate(462, 231)" class="key trans keypos-26">
<rect rx="60" ry="6" x="-23" y="-23" width="46" height="46" class="key trans"/>
<text x="0" y="0" class="key trans tap">▽</text>
</g>
<g transform="translate(528, 231)" class="key held keypos-27">
<rect rx="60" ry="6" x="-23" y="-23" width="46" height="46" class="key held"/>
</g>
</g>
</g>
</svg>
